<?xml version="1.0" encoding="UTF-8" standalone="no"?>
<svg
   width="278.24918"
   height="226.8868"
   viewBox="0 0 278.24918 226.8868"
   version="1.1"
   sodipodi:docname="logo-ON.svg"
   id="svg685"
   inkscape:version="1.2.2 (b0a8486541, 2022-12-01)"
   xml:space="preserve"
   xmlns:inkscape="http://www.inkscape.org/namespaces/inkscape"
   xmlns:sodipodi="http://sodipodi.sourceforge.net/DTD/sodipodi-0.dtd"
   xmlns="http://www.w3.org/2000/svg"
   xmlns:svg="http://www.w3.org/2000/svg"><defs
     id="defs687" /><sodipodi:namedview
     pagecolor="#b1b1b1"
     bordercolor="#2a2a2a"
     borderopacity="1"
     inkscape:pageshadow="0"
     inkscape:pageopacity="0"
     inkscape:pagecheckerboard="true"
     inkscape:showpageshadow="false"
     inkscape:document-units="px"
     showgrid="false"
     units="px"
     width="750px"
     height="1140px"
     borderlayer="true"
     inkscape:zoom="0.41532223"
     inkscape:cx="33.708766"
     inkscape:cy="344.31097"
     inkscape:current-layer="layer1"
     id="namedview670"
     inkscape:blackoutopacity="0.0"
     inkscape:deskcolor="#494949"
     inkscape:window-maximized="1"
     inkscape:window-width="1920"
     inkscape:window-height="946"
     inkscape:window-x="0"
     inkscape:window-y="29"><inkscape:page
       x="0"
       y="0"
       width="278.24918"
       height="226.8868"
       id="page1792"
       inkscape:label="About Screen" /><inkscape:page
       x="510.20792"
       y="429.5473"
       width="960"
       height="360"
       id="page1794"
       inkscape:label="Website Download Splash" /><inkscape:page
       x="641.8446"
       y="832.43512"
       width="700"
       height="219.99994"
       id="page4330"
       inkscape:label="Welcome Screen" /></sodipodi:namedview><g
     id="layer1"
     inkscape:groupmode="layer"
     inkscape:label="Layer 1"
     transform="translate(-290.13174,430.7813)"><path
       style="fill:#0588d0;stroke-width:0.666667"
       d="m 476.46508,-204.46285 c -13.54076,-1.7811 -25.0386,-6.52819 -34.66667,-14.31276 l -2.66667,-2.15607 -11.66666,-0.38521 c -16.43132,-0.54251 -27.16815,-3.05568 -40.42129,-9.46138 -12.18745,-5.89062 -24.92643,-15.9537 -32.93205,-26.01451 l -3.42814,-4.30819 h -30.27593 -30.27593 v -1.60482 c 0,-2.934 21.31759,-114.62537 23.03533,-120.69131 5.693,-20.10392 18.2002,-34.90001 35.28341,-41.74046 23.67763,-9.48098 48.68456,-6.88816 65.68434,6.81043 l 4.1801,3.36836 11.40841,0.17951 c 12.47564,0.1963 18.57437,1.13406 29.07508,4.47067 17.72214,5.63122 33.92375,16.76208 46.11556,31.68238 l 3.97009,4.85857 h 29.5845 c 16.27147,0 29.72907,0.23391 29.90577,0.5198 0.4387,0.70992 -21.17549,114.96812 -22.93416,121.23566 -7.98701,28.46399 -26.43838,44.63121 -54.30842,47.58543 -6.7757,0.71823 -8.97297,0.71282 -14.66667,-0.0361 z m -29,-23.28272 c 8.04862,-1.64154 10.40007,-2.93986 16.44712,-9.08106 7.66057,-7.77982 14.67639,-19.87819 19.10243,-32.94101 1.53862,-4.54102 5.80121,-23.46899 12.13437,-53.88251 l 9.76259,-46.88251 -1.88992,-2.78416 c -3.36238,-4.95332 -15.66832,-16.69006 -21.67789,-20.6752 -11.47538,-7.6097 -22.96846,-12.35172 -35.8787,-14.8035 -9.23262,-1.75335 -24.77904,-1.62852 -33.79228,0.27134 -33.45664,7.05221 -59.22243,29.78346 -69.88642,61.65566 -3.33936,9.98058 -4.52832,17.74822 -4.5054,29.43422 0.0302,15.41072 2.90932,27.2612 10.01657,41.22854 13.79175,27.10389 39.86862,45.49379 70.50086,49.71852 7.20794,0.99411 21.62007,0.38281 29.66667,-1.25833 z m -22.66667,-41.40019 c -10.46886,-1.40939 -20.81509,-6.6333 -28.33333,-14.30576 -5.49064,-5.60326 -8.53284,-10.45576 -11.09588,-17.69861 -6.0837,-17.19182 -2.28938,-36.11841 9.87481,-49.25686 6.72647,-7.26521 15.39277,-12.40777 24.88773,-14.76832 5.2425,-1.30334 17.95969,-1.1626 23.33334,0.25823 2.38333,0.63016 6.88333,2.4108 10,3.95695 4.60971,2.28684 6.85423,3.99697 12.03351,9.16851 5.25831,5.25045 6.84756,7.34394 9.12788,12.02398 3.9551,8.11728 5.07327,12.91866 5.12347,22 0.0449,8.11314 -0.68631,12.13325 -3.44695,18.95224 -8.0454,19.87276 -30.06309,32.55624 -51.50458,29.66964 z m 45.66544,-24.95521 c 2.98212,-6.01273 4.31245,-11.19991 4.79333,-18.69009 0.92273,-14.37257 -4.8001,-28.32878 -15.78791,-38.5018 -7.93726,-7.3487 -21.28872,-12.9527 -29.39883,-12.33957 l -2.9387,0.22217 3,0.83865 c 10.89557,3.04587 18.47219,7.32793 25.64148,14.49173 14.151,14.14018 18.90373,34.90932 12.27605,53.64558 -1.10247,3.11666 -2.16047,6.26666 -2.3511,7 -0.63268,2.4338 2.25698,-1.60852 4.76568,-6.66667 z"
       id="path243" /></g></svg>
